<svg width="776" height="1067" viewBox="0 0 776 1067" fill="none" xmlns="http://www.w3.org/2000/svg">
<path d="M38.5498 359.859C25.5178 353.941 14.2365 349.352 5.05258 345.898C3.10701 331.422 1.71551 316.917 0.814833 302.37C0.116554 290.393 0.546683 278.568 1.98372 266.937C9.80141 268.222 20.8879 270.168 34.694 272.845C33.338 289.302 33.2115 306.646 34.694 324.968C35.6301 336.669 36.9079 348.31 38.5498 359.859ZM167.329 435.896C134.386 411.737 103.459 392.992 76.5857 378.642C71.1412 345.154 68.8036 311.979 70.8656 280.392C95.7228 285.882 125.086 292.958 157.414 301.947C155.264 344.181 159.236 389.609 167.329 435.896ZM505.556 453.517C505.245 457.168 504.815 460.862 504.423 464.558C459.422 488.056 414.654 519.714 374.399 562.423C361.369 576.229 349.506 590.073 338.655 603.88C326.488 588.485 313.484 572.882 299.686 557.209C293.503 550.203 287.316 543.403 281.06 536.789C270.715 467.51 264.129 399.142 262.922 335.078C343.009 363.515 429.477 402.097 505.556 453.517Z" fill="#2AC64B"/>
<path d="M48.3816 205.522C41.6518 225.944 36.7512 248.382 34.6994 272.845C20.8907 270.168 9.80679 268.223 1.98657 266.937C2.87207 259.628 4.16489 252.39 5.83469 245.276C15.6334 234.725 29.8342 220.767 48.3816 205.522Z" fill="#008A5A"/>
<path d="M205.097 117.232C181.409 160.68 162.424 219.211 157.639 297.353C157.561 298.871 157.488 300.424 157.409 301.94C125.081 292.953 95.718 285.884 70.8684 280.394C70.9064 279.342 70.9848 278.332 71.0557 277.28C74.1372 236.322 86.2302 198.756 104.509 165.383C132.785 147.919 166.272 130.96 205.097 117.232Z" fill="#009550"/>
<path d="M505.556 453.517C429.477 402.097 343.009 363.515 262.922 335.078C261.379 258.768 267.325 188.606 283.112 130.492C283.542 128.896 283.969 127.307 284.443 125.746C347.956 163.283 430.719 205.135 509.288 223.53C516.134 292.799 514.072 371.52 505.556 453.517Z" fill="#00983E"/>
<path d="M775.249 302.37C773.304 334.61 768.717 366.508 761.56 398.398C752.49 398.745 742.066 399.334 730.481 400.344C735.577 375.762 739.316 350.604 741.37 324.97C748.259 238.743 720.404 173.044 688.167 127.185C697.619 129.872 706.563 132.514 714.924 135.084C751.134 180.978 779.062 239.94 775.249 302.37ZM694.74 404.506C669.498 408.121 641.018 413.76 610.959 422.355C617.848 379.069 620.839 336.791 618.42 297.348C612.94 207.391 588.591 143.441 559.931 98.5205C586.878 102.956 612.432 108.205 636.004 113.728C673.622 158.15 700.22 213.567 705.004 277.285C708.037 317.886 703.683 361.182 694.74 404.506Z" fill="#009A37"/>
<path d="M509.286 223.53C430.717 205.135 347.953 163.283 284.443 125.746C287.79 114.123 291.547 103.538 295.671 93.9362C307.309 91.9527 319.286 90.3208 331.62 89.071C381.245 84.0186 430.798 84.4841 477.977 88.3651C483.538 100.663 488.634 114.624 492.955 130.492C500.649 158.848 506.02 190.079 509.286 223.53Z" fill="#00863F"/>
<path d="M170.084 46.4786C167.479 48.0776 83.0803 100.041 48.3788 205.519C29.8314 220.762 15.6331 234.731 5.84204 245.273C28.779 145.773 120.38 64.4897 170.084 46.4786ZM223.488 87.5151C217.15 96.5396 210.966 106.419 205.092 117.237C166.277 130.963 132.79 147.921 104.515 165.388C126.141 125.705 156.513 91.9148 190.777 65.112C198.908 70.9057 210.028 78.607 223.488 87.5151Z" fill="#06CBF6"/>
<path d="M714.927 135.084C706.562 132.514 697.619 129.87 688.167 127.185C650.083 72.9727 605.904 46.4381 605.904 46.4381C635.224 57.0236 679.135 89.6985 714.927 135.084ZM636.001 113.728C612.429 108.203 586.876 102.956 559.931 98.5205C511.583 22.6004 450.866 1.04752 447.911 0.0380473C513.02 13.0701 584.743 53.2058 636.001 113.728ZM477.98 88.3702C430.8 84.4766 381.248 84.0136 331.622 89.0736C319.288 90.3159 307.309 91.9477 295.671 93.9388C330.524 11.7544 387.236 0.00012207 387.236 0.00012207H388.833C388.833 0.00012207 442.975 11.2003 477.98 88.3702ZM328.158 0.040518C325.355 1.01204 270.429 20.4981 223.482 87.5177C210.033 78.6096 198.911 70.9082 190.772 65.1145C233.595 31.6629 282.497 9.17886 328.158 0.040518Z" fill="url(#paint0_linear_42_28)"/>
<path d="M446.312 1066.42L467.875 972.328H308.192L329.755 1066.42H446.312Z" fill="#666565"/>
<path fill-rule="evenodd" clip-rule="evenodd" d="M167.904 645.225C179.114 668.412 189.808 689.103 199.018 706.372C214.815 735.933 229.828 761.048 245.314 783.924C249.784 768.251 255.373 751.722 262.343 734.602C250.32 707.032 238.263 677.427 226.802 646.581C201.866 579.571 179.731 506.687 167.334 435.893C134.391 411.741 103.465 392.997 76.5811 378.647C91.9862 473.942 132.471 572.065 167.904 645.225Z" fill="url(#paint1_linear_42_28)"/>
<path fill-rule="evenodd" clip-rule="evenodd" d="M115.247 644.021C121.592 655.105 128.195 666.262 135.041 677.508C167.048 729.98 204.007 778.444 236.907 817.803C237.878 813.019 239.012 808.111 240.262 803.104C226.946 784.817 213.96 766.224 202.792 748.99C186.772 724.338 163.593 688.594 139.441 644.6C98.0555 569.145 53.8765 469.426 38.5498 359.859C25.5203 353.941 14.2393 349.362 5.05542 345.898C18.2822 444.148 55.8479 540.559 115.247 644.021Z" fill="url(#paint2_linear_42_28)"/>
<path fill-rule="evenodd" clip-rule="evenodd" d="M286.851 573.35C291.011 598.162 295.876 623.368 301.123 648.261C301.632 650.634 302.133 653 302.641 655.373C313.136 638.379 325.087 621.144 338.653 603.885C326.078 587.984 313.084 572.418 299.686 557.204C293.51 550.206 287.317 543.405 281.06 536.792C282.879 548.966 284.782 561.14 286.851 573.35Z" fill="url(#paint3_linear_42_28)"/>
<path fill-rule="evenodd" clip-rule="evenodd" d="M730.481 400.344C715.655 472.335 689.538 539.021 661.772 596.039C667.381 601.679 672.865 607.303 678.168 612.864C717.742 539.299 745.869 468.914 761.56 398.396C752.492 398.755 742.066 399.324 730.481 400.344ZM610.964 422.363C605.535 456.735 597.687 491.735 588.224 526.436C604.583 541.194 622.485 557.725 640.071 574.689C662.07 522.151 682.637 463.275 694.745 404.501C669.496 408.126 641.023 413.766 610.964 422.363Z" fill="#97CC1A"/>
<path fill-rule="evenodd" clip-rule="evenodd" d="M374.399 562.416C361.37 576.224 349.507 590.076 338.653 603.885C385.984 663.701 421.194 720.563 446.669 768.127C455.931 732.353 465.535 692.753 474.121 652.187C479.69 626.009 484.823 599.483 489.213 573.35C495.363 536.863 500.497 500.423 504.424 464.56C459.423 488.051 414.661 519.719 374.399 562.416ZM661.772 596.039C660.709 598.223 659.644 600.391 658.576 602.544C627.169 665.94 594.137 716.849 573.272 748.99C549.192 786.067 516.757 829.515 491.045 862.761C491.981 865.216 492.874 867.508 493.729 869.686C533.546 826.319 592.908 756.426 641.023 677.508C653.091 657.7 664.395 638.176 674.915 618.878C676.01 616.869 677.09 614.867 678.168 612.864C672.865 607.303 667.381 601.679 661.772 596.039ZM588.224 526.436L586.977 530.963C556.47 641.131 510.002 747.869 473.229 821.419C477.236 830.165 480.851 838.307 484.047 845.768C518.007 805.353 545.996 764.431 577.047 706.372C594.104 674.406 616.216 630.839 637.294 581.267L640.071 574.689C622.485 557.725 604.583 541.194 588.224 526.436Z" fill="url(#paint4_linear_42_28)"/>
<path fill-rule="evenodd" clip-rule="evenodd" d="M418.694 917.293C443.516 891.581 464.758 868.75 484.047 845.768C480.851 838.307 477.236 830.165 473.229 821.419C447.177 873.542 425.933 909.002 418.694 917.293Z" fill="url(#paint5_linear_42_28)"/>
<path fill-rule="evenodd" clip-rule="evenodd" d="M449.158 915.777C450.479 914.492 468.062 897.579 493.729 869.686C492.874 867.508 491.981 865.216 491.045 862.761C468.062 892.527 450.514 914.143 449.158 915.777Z" fill="url(#paint6_linear_42_28)"/>
<path fill-rule="evenodd" clip-rule="evenodd" d="M302.641 655.373C331.969 792.554 372.178 918.383 372.178 918.383H403.889C403.889 918.383 424.301 854.478 446.669 768.127C421.194 720.563 385.984 663.701 338.653 603.885C325.087 621.144 313.136 638.379 302.641 655.373Z" fill="url(#paint7_linear_42_28)"/>
<path fill-rule="evenodd" clip-rule="evenodd" d="M245.314 783.924C277.364 831.531 311.155 869.382 357.37 917.293C346.597 904.969 304.898 832.505 262.343 734.602C255.373 751.722 249.784 768.251 245.314 783.924Z" fill="url(#paint8_linear_42_28)"/>
<path fill-rule="evenodd" clip-rule="evenodd" d="M236.907 817.803C285.29 875.712 324.928 913.832 326.944 915.778C324.812 913.136 281.139 859.457 240.262 803.104C239.012 808.111 237.878 813.019 236.907 817.803Z" fill="url(#paint9_linear_42_28)"/>
<defs>
<linearGradient id="paint0_linear_42_28" x1="34.9596" y1="479.312" x2="730.383" y2="483.26" gradientUnits="userSpaceOnUse">
<stop stop-color="#0288F7"/>
<stop offset="1" stop-color="#2EE2BD"/>
</linearGradient>
<linearGradient id="paint1_linear_42_28" x1="724.789" y1="974.509" x2="515.27" y2="152.909" gradientUnits="userSpaceOnUse">
<stop stop-color="#CB1918"/>
<stop offset="0.388" stop-color="#A2183D"/>
<stop offset="0.749" stop-color="#902869"/>
<stop offset="1" stop-color="#73358A"/>
</linearGradient>
<linearGradient id="paint2_linear_42_28" x1="615.794" y1="964.296" x2="422.281" y2="266.463" gradientUnits="userSpaceOnUse">
<stop stop-color="#CB1918"/>
<stop offset="0.388" stop-color="#A2183D"/>
<stop offset="0.749" stop-color="#902869"/>
<stop offset="1" stop-color="#73358A"/>
</linearGradient>
<linearGradient id="paint3_linear_42_28" x1="958.31" y1="1537.22" x2="205.171" y2="-1249.92" gradientUnits="userSpaceOnUse">
<stop stop-color="#CB1918"/>
<stop offset="0.388" stop-color="#A2183D"/>
<stop offset="0.749" stop-color="#902869"/>
<stop offset="1" stop-color="#73358A"/>
</linearGradient>
<linearGradient id="paint4_linear_42_28" x1="556.158" y1="195.683" x2="113.589" y2="614.95" gradientUnits="userSpaceOnUse">
<stop stop-color="#ADD816"/>
<stop offset="1" stop-color="#DBD704"/>
</linearGradient>
<linearGradient id="paint5_linear_42_28" x1="525.01" y1="851.165" x2="-1012.52" y2="-1913.6" gradientUnits="userSpaceOnUse">
<stop stop-color="#E1282B"/>
<stop offset="0.388" stop-color="#E3402A"/>
<stop offset="0.702" stop-color="#E76226"/>
<stop offset="1" stop-color="#F19A0A"/>
</linearGradient>
<linearGradient id="paint6_linear_42_28" x1="398.36" y1="598.884" x2="-2655.05" y2="-3852.89" gradientUnits="userSpaceOnUse">
<stop stop-color="#E1282B"/>
<stop offset="0.388" stop-color="#E3402A"/>
<stop offset="0.702" stop-color="#E76226"/>
<stop offset="1" stop-color="#F19A0A"/>
</linearGradient>
<linearGradient id="paint7_linear_42_28" x1="781.494" y1="1027.57" x2="419.707" y2="59.2552" gradientUnits="userSpaceOnUse">
<stop stop-color="#E1282B"/>
<stop offset="0.388" stop-color="#E3402A"/>
<stop offset="0.702" stop-color="#E76226"/>
<stop offset="1" stop-color="#F19A0A"/>
</linearGradient>
<linearGradient id="paint8_linear_42_28" x1="856.485" y1="1278.33" x2="96.2576" y2="-240.882" gradientUnits="userSpaceOnUse">
<stop stop-color="#E1282B"/>
<stop offset="0.388" stop-color="#E3402A"/>
<stop offset="0.702" stop-color="#E76226"/>
<stop offset="1" stop-color="#F19A0A"/>
</linearGradient>
<linearGradient id="paint9_linear_42_28" x1="342.681" y1="969.241" x2="199.909" y2="728.469" gradientUnits="userSpaceOnUse">
<stop stop-color="#E1282B"/>
<stop offset="0.388" stop-color="#E3402A"/>
<stop offset="0.702" stop-color="#E76226"/>
<stop offset="1" stop-color="#F19A0A"/>
</linearGradient>
</defs>
</svg>
